# xmcd
# 
# Track frame offsets:
#     150
#     21395
#     39970
#     63470
#     84265
#     99775
#     123718
#     146500
#     161555
#     189338
# 
# Disc length: 2788
# 
# Revision: 4
# Processed by: cddbd v1.5.2PL0 Copyright (c) Steve Scherf et al.
# Submitted via: fre:ac v1.0.17
# 
DISCID=7a0ae20a
DTITLE=Various Artist - Central Heating 2 CD One
DYEAR=2000
DGENRE=Electronic
TTITLE0=Gripper - Fame
TTITLE1=Only Child feat Kriminul - Crazy Rhymin
TTITLE2=Rae and Christian feat Siron - Distant Invitation
TTITLE3=Only Child - Breakneck
TTITLE4=Riton - Communicated
TTITLE5=Gripper - Jazz Cop
TTITLE6=Aim - Wait Until Spring
TTITLE7=Loudicrus - Break It Down
TTITLE8=Andy Votel with Jane Weaver - Kitten
TTITLE9=Rae and Christian feat QnC - Anything You Want (Aim remix)
EXTD=
EXTT0=
EXTT1=
EXTT2=
EXTT3=
EXTT4=
EXTT5=
EXTT6=
EXTT7=
EXTT8=
EXTT9=
PLAYORDER=
